<svg width="20" height="20" viewBox="0 0 20 20" fill="none" xmlns="http://www.w3.org/2000/svg">
<g id="&#240;&#159;&#166;&#134; icon &#34;clock&#34;">
<path id="Vector" d="M9.32678 10.6982L9.31766 10.6891L9.30765 10.681L9 10.431V5.3H11V9.575V9.67855L11.0732 9.75178L11.9232 10.6018L11.923 10.602L11.9333 10.6113L12.6864 11.2851L11.2601 12.7114L10.5863 11.9583L10.5866 11.958L10.5768 11.9482L9.32678 10.6982ZM0.25 10C0.25 4.63807 4.63807 0.25 10 0.25C15.3619 0.25 19.75 4.63807 19.75 10C19.75 15.3619 15.3619 19.75 10 19.75C4.63807 19.75 0.25 15.3619 0.25 10ZM17.75 10C17.75 5.71193 14.2881 2.25 10 2.25C5.71193 2.25 2.25 5.71193 2.25 10C2.25 14.2881 5.71193 17.75 10 17.75C14.2881 17.75 17.75 14.2881 17.75 10Z" fill="black" stroke="white" stroke-width="0.5"/>
</g>
</svg>
