<svg width="28" height="26" viewBox="0 0 28 26" fill="none" xmlns="http://www.w3.org/2000/svg">
<path d="M12.7781 13.5137L12.7595 13.4961L12.7392 13.4804L12.3959 13.2159V6.9438H14.7595V12.2177V12.4326L14.9155 12.5805L16.0591 13.6651L16.0691 13.6746L16.0797 13.6835L16.9329 14.4076L15.2792 15.9759L14.4796 15.1284L14.47 15.1183L14.4599 15.1087L12.7781 13.5137ZM0.623047 12.76C0.623047 6.04279 6.42847 0.5 13.5777 0.5C20.7269 0.5 26.5323 6.04279 26.5323 12.76C26.5323 19.4772 20.7269 25.02 13.5777 25.02C6.42847 25.02 0.623047 19.4772 0.623047 12.76ZM24.1687 12.76C24.1687 7.16381 19.4122 2.69 13.5777 2.69C7.74317 2.69 2.98671 7.16381 2.98671 12.76C2.98671 18.3562 7.74317 22.83 13.5777 22.83C19.4122 22.83 24.1687 18.3562 24.1687 12.76Z" fill="#D07000" stroke="#FFF8F8"/>
</svg>
