<svg width="294" height="74" viewBox="0 0 294 74" fill="none" xmlns="http://www.w3.org/2000/svg">
<path d="M3.57422 59V15.0547H19.834C24.5605 15.0547 28.2227 16.0605 30.8203 18.0723C33.4375 20.0645 34.7461 22.8672 34.7461 26.4805C34.7461 28.6875 34.2285 30.6406 33.1934 32.3398C32.1582 34.0195 30.7617 35.2988 29.0039 36.1777C31.5039 36.9199 33.4473 38.1992 34.834 40.0156C36.2402 41.8125 36.9434 44.0195 36.9434 46.6367C36.9434 49.1367 36.3281 51.3145 35.0977 53.1699C33.8867 55.0059 32.168 56.4414 29.9414 57.4766C27.7344 58.4922 25.1367 59 22.1484 59H3.57422ZM12.5977 33.4531H19.3359C21.3477 33.4531 22.9395 32.9746 24.1113 32.0176C25.2832 31.0605 25.8691 29.7617 25.8691 28.1211C25.8691 26.5195 25.2734 25.2598 24.082 24.3418C22.9102 23.4043 21.2793 22.9355 19.1895 22.9355H12.5977V33.4531ZM12.5977 51.1191H19.8926C21.4941 51.1191 22.8809 50.8945 24.0527 50.4453C25.2246 49.9766 26.123 49.3223 26.748 48.4824C27.3926 47.623 27.7148 46.627 27.7148 45.4941C27.7148 44.3613 27.4219 43.3945 26.8359 42.5938C26.2695 41.793 25.4395 41.1875 24.3457 40.7773C23.252 40.3477 21.9531 40.1328 20.4492 40.1328H12.5977V51.1191ZM46.6699 22.7012C45.5566 22.7012 44.6191 22.3105 43.8574 21.5293C43.0957 20.748 42.7148 19.8008 42.7148 18.6875C42.7148 17.5742 43.0957 16.6367 43.8574 15.875C44.6191 15.0937 45.5566 14.7031 46.6699 14.7031C47.8027 14.7031 48.75 15.0937 49.5117 15.875C50.293 16.6367 50.6836 17.5742 50.6836 18.6875C50.6836 19.8008 50.293 20.748 49.5117 21.5293C48.75 22.3105 47.8027 22.7012 46.6699 22.7012ZM50.8887 59H42.4805V29.7031H50.8887V59ZM78.6035 58.2383C76.3574 59.1367 74.1797 59.5859 72.0703 59.5859C69.8828 59.5859 67.9492 59.127 66.2695 58.209C64.6094 57.2715 63.3105 55.9727 62.373 54.3125C61.4355 52.6328 60.9668 50.6992 60.9668 48.5117V37.2031H55.8398V29.7031H61.4062V22.3789H69.375V29.7031H77.4902V37.2031H69.375V46.9883C69.375 48.5898 69.8145 49.8398 70.6934 50.7383C71.5723 51.6172 72.666 52.0566 73.9746 52.0566C75.166 52.0566 76.3281 51.6855 77.4609 50.9434L78.6035 58.2383ZM110.479 55.7188C106.846 58.2969 102.871 59.5859 98.5547 59.5859C95.3516 59.5859 92.4707 58.9023 89.9121 57.5352C87.373 56.1484 85.3613 54.2734 83.877 51.9102C82.4121 49.5469 81.6797 46.8809 81.6797 43.9121C81.6797 41.0801 82.3438 38.5508 83.6719 36.3242C85.0195 34.0977 86.8457 32.3398 89.1504 31.0508C91.4551 29.7617 94.0723 29.1172 97.002 29.1172C100.029 29.1172 102.695 29.8301 105 31.2559C107.305 32.6621 109.102 34.6348 110.391 37.1738C111.68 39.6934 112.324 42.6133 112.324 45.9336V46.8711H90.7324C91.084 48.0234 91.6602 49.0391 92.4609 49.918C93.2617 50.7773 94.2578 51.4609 95.4492 51.9688C96.6406 52.4766 98.0078 52.7305 99.5508 52.7305C102.539 52.7305 105.322 51.7637 107.9 49.8301L110.479 55.7188ZM90.3516 42.5938H104.561C104.404 41.3242 104.004 40.2109 103.359 39.2539C102.734 38.2773 101.904 37.5156 100.869 36.9688C99.8535 36.4219 98.7109 36.1484 97.4414 36.1484C96.1523 36.1484 95 36.4316 93.9844 36.998C92.9883 37.5645 92.1777 38.3262 91.5527 39.2832C90.9277 40.2402 90.5273 41.3438 90.3516 42.5938ZM252.949 59H245.625L245.186 55.5137C244.111 56.8027 242.783 57.8086 241.201 58.5312C239.619 59.2344 237.881 59.5859 235.986 59.5859C233.936 59.5859 232.109 59.1953 230.508 58.4141C228.906 57.6133 227.646 56.5195 226.729 55.1328C225.811 53.7266 225.352 52.1348 225.352 50.3574C225.352 48.4824 225.85 46.832 226.846 45.4062C227.842 43.9805 229.209 42.8672 230.947 42.0664C232.705 41.2461 234.697 40.8359 236.924 40.8359C238.232 40.8359 239.541 40.9824 240.85 41.2754C242.178 41.5684 243.408 41.9785 244.541 42.5059V41.7441C244.541 40.5723 244.209 39.5664 243.545 38.7266C242.9 37.8672 242.002 37.2031 240.85 36.7344C239.717 36.2656 238.447 36.0312 237.041 36.0312C235.693 36.0312 234.355 36.2461 233.027 36.6758C231.719 37.1055 230.508 37.75 229.395 38.6094L227.109 32.1934C229.082 31.1777 231.074 30.416 233.086 29.9082C235.117 29.3809 237.08 29.1172 238.975 29.1172C241.826 29.1172 244.297 29.6836 246.387 30.8164C248.477 31.9297 250.088 33.5117 251.221 35.5625C252.373 37.5938 252.949 40.0059 252.949 42.7988V59ZM237.832 53.1113C238.945 53.1113 240.01 52.8672 241.025 52.3789C242.041 51.8906 242.861 51.2266 243.486 50.3867C244.131 49.5469 244.473 48.6191 244.512 47.6035V47.3984C243.652 46.8125 242.695 46.3633 241.641 46.0508C240.605 45.7188 239.551 45.5527 238.477 45.5527C236.875 45.5527 235.566 45.9043 234.551 46.6074C233.535 47.3105 233.027 48.2188 233.027 49.332C233.027 50.0547 233.232 50.709 233.643 51.2949C234.072 51.8613 234.648 52.3105 235.371 52.6426C236.094 52.9551 236.914 53.1113 237.832 53.1113Z" fill="#D07000"/>
<path d="M115.605 54.2539L119.883 47.3691C121.23 48.4629 122.529 49.3613 123.779 50.0645C125.049 50.748 126.299 51.2559 127.529 51.5879C128.76 51.9004 130.02 52.0566 131.309 52.0566C132.832 52.0566 134.15 51.8418 135.264 51.4121C136.377 50.9824 137.236 50.3672 137.842 49.5664C138.467 48.7656 138.779 47.8379 138.779 46.7832C138.779 45.5527 138.389 44.5176 137.607 43.6777C136.826 42.8379 135.801 42.1055 134.531 41.4805C133.281 40.8359 131.924 40.2207 130.459 39.6348C129.033 39.0488 127.598 38.4141 126.152 37.7305C124.727 37.0273 123.408 36.1973 122.197 35.2402C121.006 34.2832 120.039 33.1211 119.297 31.7539C118.574 30.3672 118.213 28.6875 118.213 26.7148C118.213 24.1367 118.857 21.9102 120.146 20.0352C121.455 18.1602 123.242 16.7148 125.508 15.6992C127.773 14.6836 130.361 14.1758 133.271 14.1758C135.322 14.1758 137.451 14.4492 139.658 14.9961C141.885 15.543 144.102 16.373 146.309 17.4863L142.764 24.7812C141.377 23.9414 139.883 23.2773 138.281 22.7891C136.68 22.3008 135.176 22.0566 133.77 22.0566C132.5 22.0566 131.387 22.252 130.43 22.6426C129.492 23.0332 128.76 23.5801 128.232 24.2832C127.705 24.9668 127.441 25.7773 127.441 26.7148C127.441 27.8281 127.822 28.7949 128.584 29.6152C129.346 30.416 130.332 31.1289 131.543 31.7539C132.773 32.3789 134.092 33.0039 135.498 33.6289C136.943 34.2539 138.398 34.9375 139.863 35.6797C141.348 36.4219 142.695 37.3008 143.906 38.3164C145.137 39.3125 146.123 40.5137 146.865 41.9199C147.627 43.3066 148.008 44.9766 148.008 46.9297C148.008 49.5078 147.324 51.7734 145.957 53.7266C144.59 55.6602 142.686 57.1738 140.244 58.2676C137.803 59.3418 134.961 59.8789 131.719 59.8789C128.75 59.8789 125.908 59.4004 123.193 58.4434C120.479 57.4863 117.949 56.0898 115.605 54.2539ZM183.867 73.6484H175.459V55.6602C174.229 56.8906 172.783 57.8574 171.123 58.5605C169.482 59.2441 167.705 59.5859 165.791 59.5859C163.135 59.5859 160.752 58.9316 158.643 57.623C156.553 56.2949 154.902 54.4785 153.691 52.1738C152.48 49.8691 151.875 47.2617 151.875 44.3516C151.875 41.4219 152.48 38.8145 153.691 36.5293C154.902 34.2246 156.553 32.418 158.643 31.1094C160.752 29.7812 163.135 29.1172 165.791 29.1172C167.861 29.1172 169.775 29.5273 171.533 30.3477C173.291 31.1484 174.795 32.2617 176.045 33.6875L176.455 29.7031H183.867V73.6484ZM167.959 52.0273C169.346 52.0273 170.576 51.7344 171.65 51.1484C172.744 50.5625 173.623 49.752 174.287 48.7168C174.951 47.6621 175.342 46.4609 175.459 45.1133V43.6484C175.342 42.2812 174.951 41.0703 174.287 40.0156C173.643 38.9609 172.773 38.1406 171.68 37.5547C170.605 36.9688 169.375 36.6758 167.988 36.6758C166.543 36.6758 165.254 37.0078 164.121 37.6719C163.008 38.3164 162.129 39.2148 161.484 40.3672C160.84 41.5195 160.518 42.8477 160.518 44.3516C160.518 45.8359 160.83 47.1641 161.455 48.3359C162.1 49.4883 162.988 50.3965 164.121 51.0605C165.254 51.7051 166.533 52.0273 167.959 52.0273ZM219.668 59H212.842L212.549 54.3125C211.514 56.0312 210.137 57.3398 208.418 58.2383C206.719 59.1367 204.727 59.5859 202.441 59.5859C198.691 59.5859 195.752 58.4336 193.623 56.1289C191.494 53.8242 190.43 50.6602 190.43 46.6367V29.7031H198.838V44.7031C198.838 46.9883 199.375 48.7852 200.449 50.0938C201.543 51.3828 203.027 52.0273 204.902 52.0273C206.855 52.0273 208.398 51.3535 209.531 50.0059C210.684 48.6387 211.26 46.793 211.26 44.4688V29.7031H219.668V59ZM289.688 59H282.305L281.865 55.0156C280.615 56.4219 279.111 57.5352 277.354 58.3555C275.615 59.1758 273.711 59.5859 271.641 59.5859C268.965 59.5859 266.572 58.9316 264.463 57.623C262.373 56.2949 260.723 54.4785 259.512 52.1738C258.301 49.8691 257.695 47.2617 257.695 44.3516C257.695 41.4219 258.301 38.8145 259.512 36.5293C260.723 34.2246 262.373 32.418 264.463 31.1094C266.572 29.7812 268.965 29.1172 271.641 29.1172C273.555 29.1172 275.332 29.4688 276.973 30.1719C278.633 30.8555 280.068 31.8125 281.279 33.043V15.0547H289.688V59ZM273.809 52.0566C275.195 52.0566 276.445 51.7441 277.559 51.1191C278.691 50.4941 279.59 49.6445 280.254 48.5703C280.938 47.4766 281.279 46.2363 281.279 44.8496V43.7949C281.279 42.4082 280.938 41.1777 280.254 40.1035C279.59 39.0293 278.691 38.1895 277.559 37.584C276.445 36.959 275.195 36.6465 273.809 36.6465C272.383 36.6465 271.104 36.9785 269.971 37.6426C268.838 38.3066 267.939 39.2246 267.275 40.3965C266.631 41.5488 266.309 42.8672 266.309 44.3516C266.309 45.8164 266.631 47.1348 267.275 48.3066C267.939 49.459 268.838 50.377 269.971 51.0605C271.104 51.7246 272.383 52.0566 273.809 52.0566Z" fill="black"/>
<path d="M251.124 40.083L248.041 44.0828L246.672 42.679C246.968 42.1709 247.637 41.1166 248.915 39.4486C248.534 39.1031 247.217 41.1116 246.621 42.627L245.081 41.0477C246.29 39.2193 247.374 37.8693 247.374 37.8693L247.058 37.5443C247.058 37.5443 246.484 38.2449 245.654 39.3283C245.312 39.7705 245.01 40.2276 244.726 40.6837L242.672 38.5779C244.116 36.99 245.223 35.6628 245.223 35.6628C245.223 35.6628 245.09 35.5263 244.861 35.2923C244.159 36.222 243.282 37.2498 242.365 38.2627L240.647 36.5014C242.046 34.9638 243.065 33.4498 243.065 33.4498L242.748 33.1248C242.748 33.1248 242.158 33.8092 241.344 34.9088C241.039 35.3114 240.678 35.7272 240.299 36.1439L238.16 33.9504C239.465 32.8656 240.877 31.252 240.574 30.8955C239.424 32.3276 238.587 33.261 238.045 33.8334L236.258 32.0006L239.398 28.0593L251.124 40.083ZM253.828 36.6811L242.074 24.6281L239.688 27.6609L251.439 39.7107L253.825 36.6778L253.828 36.6811Z" fill="#D07000"/>
<path d="M244.539 21.4747L256.311 33.5467L253.921 36.5851L242.149 24.5132L244.539 21.4747ZM268.143 27.2893C265.011 30.2576 261.621 26.9039 261.621 26.9039L256.602 33.1544L244.856 21.1085L249.721 14.8422C249.721 14.8422 247.403 11.445 248.556 9.14033C249.359 7.53583 251.068 5.69129 253.7 6.02025C258.042 6.55949 258.393 11.4725 258.393 11.4725C258.393 11.4725 259.19 10.4882 258.001 8.1199C260.135 7.20824 265.448 9.75062 265.707 14.5555C265.923 18.5167 264.579 20.3864 263.345 21.1748C265.033 20.9684 266.521 18.8719 266.477 16.3536C270.37 18.6531 271.594 24.0162 268.143 27.2893ZM250.336 17.9911C250.336 17.9911 249.654 19.2809 247.456 22.1413C247.875 22.5196 249.701 19.7099 250.336 17.9911ZM254.586 16.8605C254.586 16.8605 252.681 20.558 251.039 22.5873C250.171 23.6337 249.634 24.3746 249.634 24.3746L249.951 24.7002C249.951 24.7002 254.016 20.2608 254.586 16.8605ZM252.113 26.9173C252.113 26.9173 257.67 19.4291 258.298 16.6832C258.298 16.6832 254.533 23.1546 251.751 26.5462C251.98 26.7806 252.113 26.9173 252.113 26.9173ZM260.771 22.6099C260.771 22.6099 257.708 24.0985 255.357 27.015C254.501 28.0744 253.951 28.8023 253.951 28.8023L254.269 29.1279C254.269 29.1279 257.731 24.6384 260.771 22.6099ZM258.684 27.5467C257.401 28.2657 255.435 30.2781 255.812 30.7101C257.752 28.3019 258.684 27.5467 258.684 27.5467Z" fill="#D07000"/>
</svg>
